<?xml version="1.0" encoding="UTF-8" standalone="no"?>
<!-- Created with Inkscape (http://www.inkscape.org/) -->

<svg
   version="1.1"
   id="svg75"
   width="55mm"
   height="61mm"
   viewBox="0 0 207.87402 230.55118"
   sodipodi:docname="sheikh_logo.svg"
   inkscape:version="1.2.2 (732a01da63, 2022-12-09, custom)"
   inkscape:export-filename="../f2647397/sheikh_logo1.svg"
   inkscape:export-xdpi="96"
   inkscape:export-ydpi="96"
   xmlns:inkscape="http://www.inkscape.org/namespaces/inkscape"
   xmlns:sodipodi="http://sodipodi.sourceforge.net/DTD/sodipodi-0.dtd"
   xmlns="http://www.w3.org/2000/svg"
   xmlns:svg="http://www.w3.org/2000/svg">
  <defs
     id="defs79" />
  <sodipodi:namedview
     id="namedview77"
     pagecolor="#ffffff"
     bordercolor="#000000"
     borderopacity="0.25"
     inkscape:showpageshadow="2"
     inkscape:pageopacity="0.0"
     inkscape:pagecheckerboard="0"
     inkscape:deskcolor="#d1d1d1"
     showgrid="false"
     inkscape:document-units="mm"
     inkscape:zoom="1.1663429"
     inkscape:cx="65.160942"
     inkscape:cy="202.77056"
     inkscape:window-width="1206"
     inkscape:window-height="736"
     inkscape:window-x="0"
     inkscape:window-y="0"
     inkscape:window-maximized="1"
     inkscape:current-layer="g81" />
  <g
     inkscape:groupmode="layer"
     inkscape:label="Image"
     id="g81">
    <path
       style="fill:#000000;stroke-width:0.136518"
       d="m 121.65935,209.29661 c -1.27563,-0.13545 -2.75777,-0.46433 -3.43719,-0.76272 -0.62,-0.2723 -0.64552,-0.50485 -0.18867,-1.71861 0.6326,-1.68061 2.64298,-5.46989 3.81329,-7.18745 0.36412,-0.53442 0.40584,-0.69994 0.38205,-1.51515 -0.0324,-1.1086 0.29637,-2.0633 1.47607,-4.28661 1.33007,-2.50667 1.27286,-2.17549 1.38214,-8.00099 0.0832,-4.43653 0.13458,-5.3054 0.38494,-6.5136 0.86337,-4.16605 0.68486,-12.63944 -0.40051,-19.01273 -0.37155,-2.18175 -0.48633,-2.60244 -0.94444,-3.46151 -0.28681,-0.53783 -0.69607,-1.50005 -0.90944,-2.13825 -0.34386,-1.02855 -0.3879,-1.35437 -0.38745,-2.86688 0,-1.67079 0.0139,-1.74652 0.64239,-3.61777 1.8708,-5.57025 2.09656,-7.83192 1.35852,-13.6098 l -0.41315,-3.23453 -1.0533,-1.66258 c -1.88508,-2.97553 -3.16502,-4.35983 -4.03114,-4.35983 -0.19863,0 -0.43589,0.0901 -0.52725,0.20012 -0.15521,0.18702 -1.13951,8.6284 -1.49431,12.81512 -0.22055,2.60245 0.13989,6.78806 0.80231,9.31714 0.45575,1.73991 0.58399,3.06769 0.51562,5.33826 -0.0633,2.10214 -0.0799,2.20132 -0.63401,3.79673 -1.09301,3.14676 -2.07964,6.9581 -2.4026,9.28116 -0.31027,2.2318 -0.51513,6.43641 -0.4438,9.10874 0.0612,2.29083 0.10894,2.67234 0.57787,4.6134 0.4504,1.86422 0.50256,2.25415 0.43836,3.27643 -0.0936,1.49017 -0.20754,1.76469 -1.137,2.73915 l -0.76877,0.80596 0.0776,2.35709 c 0.0831,2.52261 0.40115,4.44948 0.93414,5.65858 0.39339,0.89247 0.5004,2.57677 0.21319,3.35613 -0.11713,0.31781 -0.28027,1.42265 -0.36253,2.45523 -0.15692,1.96975 -0.30193,2.92723 -0.53673,3.54386 -0.15812,0.41526 -0.79516,0.64906 -2.60908,0.95755 -1.58795,0.27006 -8.69388,0.2274 -10.45422,-0.0627 -1.800395,-0.29672 -3.071835,-0.6563 -3.163275,-0.89462 -0.1649,-0.42967 1.995815,-4.99323 3.309885,-6.99061 0.44801,-0.68094 0.7654,-1.33084 0.82124,-1.68158 0.14582,-0.91607 0.6532,-1.89095 1.95071,-3.74814 1.41411,-2.02404 1.93072,-2.92194 2.34483,-4.07563 0.36374,-1.01331 0.33755,-1.94573 -0.1222,-4.35197 -0.4704,-2.46198 -0.38942,-3.12838 0.63872,-5.25598 1.49194,-3.08732 1.42297,-2.53849 1.36629,-10.87232 l -0.0491,-7.21627 -0.56786,-2.79866 c -1.16293,-5.73132 -1.32285,-7.43754 -0.93759,-10.00407 0.31188,-2.07749 0.28801,-2.53821 -0.32828,-6.33723 -0.83899,-5.17191 -1.45667,-7.27529 -3.53972,-12.05442 -0.53999,-1.23889 -1.8028,-4.24908 -2.80622,-6.68935 -1.003415,-2.44027 -2.294745,-5.48123 -2.869595,-6.75764 -4.36369,-9.68946 -7.720851,-20.632426 -8.193557,-26.707656 l -0.09173,-1.17869 -1.789139,-1.55163 c -0.984022,-0.85342 -3.054615,-2.65743 -4.601301,-4.00895 -1.546685,-1.35151 -3.205956,-2.79518 -3.687286,-3.20821 -0.481303,-0.41297 -1.122459,-0.97029 -1.424773,-1.23848 -0.302321,-0.26819 -0.764698,-0.67475 -1.02749,-0.90347 -0.2628,-0.22865 -1.311102,-1.14576 -2.329564,-2.03788 -1.018456,-0.8922 -2.367673,-2.05216 -2.998242,-2.57781 -0.630577,-0.52559 -1.40992,-1.20862 -1.731862,-1.5178 l -0.585338,-0.56227 v -1.07957 c 0,-4.57456 1.444726,-7.59269 4.312919,-9.00984 0.945844,-0.46732 1.174391,-0.52537 2.028377,-0.51528 0.827259,0.01 1.140097,0.0925 2.2276,0.58858 0.695866,0.31739 2.231693,0.93555 3.412961,1.37365 1.181254,0.43809 4.236475,1.60745 6.789358,2.59855 2.552891,0.9911 4.93406,1.91336 5.291507,2.04944 l 0.64989,0.24744 0.70095,-1.04546 c 1.97999,-2.95312 4.47175,-5.68615 7.556695,-8.28825 1.23114,-1.03843 4.28969,-3.38626 4.9437,-3.79491 0.92787,-0.57974 0.95306,-0.68832 1.11856,-4.82514 0.0815,-2.03663 0.14814,-3.97241 0.14814,-4.30171 v -0.59874 l -1.94539,-0.45222 c -3.44957,-0.80191 -4.83884,-1.33146 -6.564265,-2.50187 -1.26233,-0.85627 -2.62361,-2.08862 -2.85501,-2.58463 -0.17927,-0.38428 -0.21377,-1.21349 -0.22055,-5.30192 -0.006,-3.37221 0.0414,-5.01245 0.15448,-5.39242 0.52783,-1.7738 5.051845,-4.34785 9.825275,-5.59023 4.42471,-1.15168 8.56189,-1.57877 15.2549,-1.57487 7.35018,0.007 12.39852,0.63772 16.90688,2.1212 3.71008,1.22087 7.40562,3.49729 7.93411,4.88736 0.0642,0.16886 0.13549,2.57684 0.15844,5.35121 0.037,4.47474 0.0163,5.09179 -0.1832,5.46584 -0.5416,1.0154 -3.28197,3.09073 -5.10615,3.86696 -0.96346,0.41004 -3.10414,1.00732 -5.19507,1.44952 l -1.11863,0.23659 0.0697,1.58594 c 0.0384,0.87235 0.11521,2.8595 0.17079,4.41607 0.11684,3.2726 0.004,3.00476 1.79198,4.26182 3.41627,2.4022 7.42772,6.0064 9.61835,8.64184 0.51491,0.61941 0.96018,1.12627 0.98948,1.12627 0.0293,0 0.53225,-0.27626 1.11764,-0.61391 6.37728,-3.67847 14.82921,-6.07719 19.57987,-5.55703 2.74798,0.3009 5.69276,1.45982 7.48856,2.94713 4.09442,3.391 5.36217,9.35111 3.52352,16.56501 -0.98006,3.84524 -1.51172,4.40883 -10.50874,11.13953 -2.81568,2.10638 -5.44981,4.14078 -5.85361,4.52089 -1.07879,1.0154 -2.30573,2.64394 -3.69935,4.91027 -0.67873,1.10379 -1.47105,2.32611 -1.76072,2.71632 -1.17632,1.584616 -2.63957,2.831166 -4.31762,3.678326 -0.83244,0.42027 -2.92428,1.12717 -3.73193,1.26116 -0.51617,0.0857 -0.63861,0.17729 -0.95562,0.71519 -1.73593,2.94539 -3.23947,5.12444 -5.01949,7.27466 -2.55814,3.09017 -3.71755,5.45931 -6.04562,12.35337 -1.78024,5.27179 -2.26189,7.94412 -2.81066,15.59451 -0.3004,4.1877 -0.27996,5.08003 0.14802,6.46321 0.4732,1.52929 0.58337,3.58207 0.27416,5.10933 -0.52961,2.61589 -0.92792,5.67668 -1.11033,8.53235 -0.10792,1.68945 -0.3255,5.09569 -0.48352,7.56944 -0.19972,3.12664 -0.27045,5.39478 -0.23201,7.44025 l 0.0553,2.94247 0.76146,2.33538 c 0.88684,2.71994 1.10886,3.90746 0.93278,4.98926 -0.18548,1.13964 -0.46483,1.68464 -1.55887,3.04138 -1.7591,2.18141 -1.64137,1.91774 -1.53051,3.42823 0.17685,2.40916 0.60947,3.61833 1.94296,5.43035 0.32164,0.43705 0.6883,1.12293 0.81477,1.52414 0.21318,0.67634 0.21388,0.78764 0.01,1.52615 -0.12124,0.43816 -0.28676,1.74882 -0.36782,2.91268 -0.23292,3.34457 -0.25929,3.51176 -0.6215,3.94226 -0.63818,0.75842 -2.28818,1.24509 -5.11258,1.50792 -1.77588,0.16524 -5.6929,0.1658 -7.24534,0 z M 155.43823,86.532844 c 0.49478,-0.36181 2.45235,-1.61358 4.35016,-2.78161 5.95526,-3.66518 8.46812,-5.49209 10.36948,-7.53875 1.85718,-1.99904 2.52227,-3.49923 2.39254,-5.39673 -0.42382,-6.19857 -7.48187,-8.24766 -15.31823,-4.44725 -1.82463,0.88496 -3.17146,1.73204 -4.73283,2.97679 l -1.04683,0.83456 0.20117,0.65567 c 0.72982,2.37874 1.63162,6.65497 2.02405,9.59765 0.28216,2.11598 0.50672,5.87728 0.39323,6.5869 -0.0897,0.56073 -0.0849,0.57013 0.18786,0.37301 0.15391,-0.11123 0.68463,-0.49837 1.1794,-0.86024 z M 58.720825,61.023424 c -0.757974,-0.5473 -3.042935,-2.82908 -4.965625,-4.95871 -0.813491,-0.90103 -1.547068,-1.65527 -1.630197,-1.67608 -0.08312,-0.0209 -0.949101,0.43183 -1.924381,1.00586 -2.833043,1.66738 -4.468933,2.5279 -4.9674,2.61289 -0.450266,0.0768 -0.461027,0.0682 -0.369051,-0.2984 0.153882,-0.61307 0.605066,-1.50708 2.002053,-3.96697 1.58872,-2.79749 2.038957,-3.67249 2.038957,-3.96267 0,-0.12062 -0.694195,-1.15168 -1.542648,-2.29117 -1.914623,-2.57148 -2.286743,-3.11655 -2.739313,-4.01271 -0.446012,-0.88315 -0.447419,-0.99431 -0.0126,-0.99431 0.368021,0 2.959528,0.93521 5.454953,1.96849 0.825936,0.34204 1.697108,0.62262 1.935935,0.62359 0.377007,0 0.736926,-0.29095 2.730369,-2.21879 3.362824,-3.25221 4.357865,-4.03164 4.704573,-3.68487 0.189631,0.1896 -0.186193,1.8384 -1.122466,4.92425 l -0.815433,2.68765 0.288637,0.23638 c 0.15874,0.13002 1.680848,0.94161 3.382446,1.80359 3.661164,1.85462 5.14895,2.71062 5.343697,3.07451 0.292736,0.54702 -0.179427,0.61503 -4.613739,0.66507 -3.113995,0.0348 -4.15455,0.0882 -4.20305,0.21459 -0.03543,0.0924 0.30381,1.45384 0.753888,3.02544 0.991164,3.46095 1.234996,4.47447 1.237641,5.1442 0.0028,0.63807 -0.172348,0.6522 -0.967255,0.0782 z M 23.95983,48.453864 c 0.08316,-1.51822 0.70003,-4.91151 1.656564,-9.11257 0.517246,-2.27169 0.577532,-2.68445 0.411038,-2.81419 -0.107303,-0.0836 -1.285242,-0.53825 -2.617644,-1.01031 -5.325122,-1.88657 -7.405441,-2.78774 -7.405441,-3.20801 0,-0.42341 2.1288,-0.86832 7.508486,-1.56924 3.421884,-0.44582 4.124679,-0.58433 4.329609,-0.85314 0.07114,-0.0933 0.267879,-0.81473 0.437189,-1.60307 0.889643,-4.14266 1.619102,-6.63249 2.06007,-7.0316 0.225213,-0.2038 0.262093,-0.19176 0.518966,0.169 0.356271,0.50032 1.040033,2.175 1.935225,4.73973 0.98428,2.82003 1.284659,3.46339 1.688846,3.61701 0.184787,0.0703 1.64707,0.28858 3.249536,0.48514 4.511364,0.55336 6.667689,0.96563 6.884362,1.31622 0.234644,0.37963 -1.097102,1.25282 -5.438359,3.56564 -1.407845,0.75006 -2.559712,1.44339 -2.559712,1.54077 0,0.0975 0.464541,1.61031 1.032328,3.36198 1.583868,4.88638 1.989663,6.66604 1.519978,6.66604 -0.473451,0 -2.414155,-1.54919 -4.80486,-3.8355 -1.398817,-1.3378 -2.574454,-2.31143 -2.730361,-2.26139 -0.07508,0.0244 -1.380185,1.69717 -2.900226,3.71787 -2.803397,3.72684 -4.317293,5.51902 -4.661994,5.51895 -0.155272,0 -0.17616,-0.25733 -0.1136,-1.39933 z"
       id="path193"
       sodipodi:nodetypes="csssssssssscsscsssssssssssscssssssssssssssscssssssscsssssssscssssssscssssscssscssssssssscsscssssssssssssssssssssscssssssssssccsssssscssssssssssssssssssssscsssssscssssssssssssssssssssssss" />
  </g>
</svg>
